<?xml version="1.0" encoding="utf-8"?><!-- Uploaded to: SVG Repo, www.svgrepo.com, Generator: SVG Repo Mixer Tools -->
<svg version="1.1" id="designs" xmlns="http://www.w3.org/2000/svg" xmlns:xlink="http://www.w3.org/1999/xlink" 
	 width="800px" height="800px" viewBox="0 0 32 32" xml:space="preserve">
<style type="text/css">
	.sketchy_een{fill:#111918;}
</style>
<path class="sketchy_een" d="M10.978,21.687C10.977,21.688,10.977,21.688,10.978,21.687c-0.016,0.036-0.031,0.072-0.046,0.107
	C10.947,21.759,10.962,21.723,10.978,21.687z M21.966,10.409c-0.422,0.804-0.849,1.605-1.298,2.395
	c-0.529,0.933-1.067,1.862-1.584,2.803c-0.194,0.348-0.394,0.693-0.569,1.051c-0.182,0.37-0.354,0.743-0.529,1.115
	c-0.364,0.763-0.743,1.519-1.129,2.27c-0.366,0.713-0.731,1.427-1.095,2.14c-0.186,0.366-0.372,0.733-0.537,1.107
	c-0.174,0.386-0.344,0.775-0.527,1.155c-0.185,0.378-0.694,0.481-1.051,0.308c-0.127-0.013-0.25-0.047-0.375-0.107
	c-0.761-0.36-1.51-0.743-2.256-1.137c-0.434-0.232-0.565-0.825-0.324-1.239c0.043-0.073,0.113-0.112,0.171-0.167
	c0.012-0.125,0.045-0.247,0.1-0.376c0.005-0.013,0.01-0.025,0.016-0.038c0.001-0.001,0.001-0.003,0.002-0.005
	c-0.001,0.001-0.001,0.002-0.002,0.004c0.01-0.024,0.02-0.049,0.031-0.073c-0.002,0.004-0.004,0.009-0.005,0.013
	c0.002-0.005,0.005-0.011,0.007-0.016c0-0.001,0.001-0.001,0.001-0.002c0.003-0.008,0.007-0.016,0.01-0.024
	c-0.004,0.009-0.007,0.017-0.011,0.026c0,0.001-0.001,0.002-0.001,0.003c0.018-0.042,0.035-0.084,0.053-0.126
	c-0.01,0.024-0.02,0.047-0.03,0.071c0.638-1.511,1.287-3.022,2.004-4.499c0.374-0.769,0.781-1.522,1.183-2.278
	c0.396-0.743,0.765-1.499,1.157-2.242c0.388-0.739,0.805-1.463,1.199-2.2c0.414-0.773,0.811-1.554,1.259-2.31
	c0.099-0.166,0.255-0.265,0.426-0.33c0.015-0.037,0.017-0.077,0.038-0.112c0.165-0.283,0.455-0.43,0.756-0.43
	c0.152,0,0.307,0.038,0.449,0.114c0.939,0.506,1.896,0.993,2.801,1.557c0.396,0.248,0.549,0.763,0.308,1.177
	C22.471,10.246,22.226,10.378,21.966,10.409z M10.977,21.688c0.006-0.013,0.011-0.027,0.017-0.04c0,0-0.001,0.001-0.001,0.001
	C10.988,21.663,10.983,21.675,10.977,21.688z M19.631,11.449c0.299-0.545,0.576-1.101,0.853-1.658
	c-0.449-0.242-0.897-0.484-1.348-0.721c-0.175,0.29-0.353,0.579-0.518,0.875c-0.182,0.324-0.348,0.656-0.523,0.981
	c-0.35,0.653-0.711,1.301-1.065,1.952c-0.404,0.745-0.773,1.509-1.159,2.262c-0.392,0.769-0.793,1.532-1.177,2.306
	c-0.718,1.447-1.354,2.939-1.986,4.426c-0.055,0.134-0.11,0.268-0.165,0.403c0.375,0.201,0.75,0.402,1.125,0.601
	c0.104-0.226,0.206-0.452,0.316-0.675c0.23-0.472,0.47-0.937,0.709-1.403c0.464-0.903,0.939-1.8,1.387-2.711
	c0.192-0.39,0.38-0.779,0.563-1.171c0.168-0.36,0.326-0.725,0.511-1.075c0.392-0.731,0.791-1.459,1.205-2.18
	C18.782,12.923,19.223,12.196,19.631,11.449z M10.481,19.268c0.088,0.184,0.141,0.427,0.066,0.612
	c-0.242,0.587-0.484,1.175-0.725,1.762c-0.092,0.222-0.188,0.4-0.406,0.526c-0.057,0.033-0.122,0.043-0.183,0.063
	c-0.243,0.328-0.696,0.431-1.057,0.228c-0.308-0.174-0.589-0.418-0.873-0.629c-0.258-0.194-0.516-0.392-0.775-0.583
	c-0.607-0.448-1.227-0.883-1.8-1.377c-0.561-0.483-1.113-0.979-1.678-1.458c-0.555-0.472-1.135-0.915-1.7-1.375
	c-0.08-0.065-0.137-0.162-0.176-0.266C1.07,16.627,1,16.463,1,16.287c0-0.236,0.096-0.422,0.246-0.595
	c0.448-0.52,0.909-1.021,1.401-1.501c0.406-0.394,0.849-0.747,1.287-1.103c0.927-0.753,1.843-1.516,2.785-2.247
	c0.22-0.17,0.442-0.337,0.663-0.506c0.046-0.036,0.093-0.072,0.139-0.108c-0.012,0.01-0.025,0.019-0.037,0.029
	c0.015-0.011,0.029-0.023,0.044-0.035c0.002-0.002,0.005-0.004,0.007-0.005c0.036-0.027,0.071-0.055,0.107-0.082
	c-0.035,0.027-0.07,0.053-0.105,0.081c0.31-0.244,0.621-0.49,0.935-0.728c0.102-0.076,0.247-0.108,0.386-0.109
	c0.067-0.016,0.135-0.027,0.204-0.027c0.077,0,0.153,0.01,0.228,0.031C9.514,9.444,9.672,9.586,9.8,9.776
	c0.378,0.558,0.715,1.143,1.123,1.677c0.031,0.041,0.036,0.1,0.053,0.151c0.209,0.061,0.392,0.199,0.501,0.389
	c0.116,0.194,0.146,0.431,0.086,0.651c-0.062,0.224-0.202,0.375-0.388,0.503c-0.116,0.08-0.232,0.163-0.344,0.249
	c-0.2,0.157-0.403,0.312-0.614,0.452c-0.174,0.115-0.346,0.226-0.513,0.348c-0.43,0.349-0.827,0.734-1.227,1.117
	c-0.29,0.278-0.579,0.556-0.868,0.834c0.363,0.315,0.728,0.629,1.082,0.953c0.441,0.404,0.882,0.807,1.35,1.177
	c0.033,0.025,0.067,0.051,0.1,0.076c0.174,0.126,0.304,0.256,0.364,0.47C10.547,18.97,10.528,19.123,10.481,19.268z M7.454,19.973
	c0.24,0.176,0.482,0.352,0.723,0.523c0.056,0.04,0.114,0.082,0.17,0.124c0.165-0.403,0.331-0.806,0.495-1.209
	c0.012-0.03,0.029-0.051,0.041-0.079c-0.406-0.336-0.802-0.683-1.199-1.033c-0.525-0.465-1.06-0.918-1.599-1.368
	c-0.105-0.04-0.204-0.1-0.289-0.185c-0.316-0.318-0.332-0.875,0-1.191c0.697-0.657,1.397-1.311,2.11-1.952
	c0.28-0.25,0.561-0.498,0.857-0.729c0.243-0.191,0.496-0.369,0.746-0.551c-0.008-0.011-0.018-0.018-0.026-0.029
	c-0.259-0.334-0.502-0.683-0.742-1.033c-0.387,0.279-0.769,0.565-1.15,0.85c-0.036,0.028-0.072,0.056-0.108,0.083
	c-0.877,0.681-1.716,1.415-2.566,2.129c-0.412,0.348-0.813,0.703-1.185,1.097c-0.276,0.291-0.534,0.595-0.797,0.896
	c0.467,0.391,0.933,0.782,1.394,1.179c0.558,0.482,1.108,0.975,1.68,1.439C6.484,19.291,6.975,19.624,7.454,19.973z M6.631,10.908
	c0.029-0.023,0.059-0.044,0.088-0.067c0.023-0.018,0.045-0.037,0.068-0.055C6.734,10.826,6.683,10.868,6.631,10.908z M7.535,10.216
	c-0.001,0.001-0.002,0.002-0.004,0.003c0.002-0.001,0.003-0.002,0.005-0.004C7.536,10.216,7.535,10.216,7.535,10.216z M7.531,10.219
	c-0.003,0.003-0.007,0.006-0.011,0.008c0.002-0.002,0.005-0.004,0.007-0.006C7.529,10.221,7.53,10.22,7.531,10.219z M30.757,17.099
	c-0.444,0.481-0.911,0.935-1.379,1.393c-0.482,0.474-0.957,0.951-1.453,1.409c-0.509,0.468-1.037,0.915-1.536,1.395
	c-0.542,0.52-1.081,1.045-1.618,1.569c-0.316,0.306-0.825,0.314-1.139,0c-0.047-0.047-0.074-0.107-0.107-0.163
	c-0.365-0.196-0.668-0.502-0.978-0.772c-0.314-0.276-0.633-0.542-0.955-0.805c-0.162-0.132-0.244-0.388-0.244-0.589
	c0-0.198,0.08-0.385,0.208-0.534c-0.045-0.253,0.005-0.522,0.207-0.693c1.077-0.913,2.161-1.824,3.043-2.933
	c0.012-0.016,0.024-0.033,0.036-0.05c-0.909-0.778-1.761-1.617-2.537-2.527c-0.152-0.178-0.25-0.364-0.25-0.603
	c0-0.228,0.09-0.446,0.25-0.605c0.047-0.047,0.111-0.075,0.17-0.109c0.018-0.044,0.021-0.093,0.048-0.134
	c0.306-0.466,0.609-0.933,0.917-1.401c0.185-0.28,0.488-0.451,0.803-0.451c0.027,0,0.055,0.008,0.082,0.011
	c0.142-0.111,0.311-0.179,0.486-0.179c0.202,0,0.404,0.075,0.552,0.229c0.841,0.871,1.652,1.768,2.522,2.614
	c0.807,0.785,1.622,1.566,2.454,2.326c0.076,0.069,0.132,0.154,0.169,0.245c0.091,0.041,0.178,0.09,0.248,0.16
	C31.093,16.236,31.069,16.757,30.757,17.099z M28.21,17.323c0.288-0.304,0.576-0.609,0.864-0.914
	c-0.364-0.341-0.723-0.689-1.09-1.03c-0.4-0.37-0.787-0.749-1.177-1.131c-0.684-0.669-1.351-1.355-2.02-2.04
	c-0.23,0.34-0.46,0.681-0.696,1.018c0.254,0.285,0.501,0.577,0.768,0.851c0.38,0.39,0.779,0.747,1.199,1.089
	c0.056,0.046,0.089,0.118,0.126,0.186c0.151,0.035,0.296,0.095,0.404,0.204c0.314,0.314,0.324,0.855,0,1.169
	c-0.068,0.066-0.13,0.136-0.19,0.209c-0.473,0.61-0.979,1.184-1.537,1.719c-0.568,0.547-1.153,1.073-1.747,1.591
	c0.168,0.143,0.339,0.284,0.503,0.431c0.179,0.158,0.352,0.322,0.534,0.476c0.019,0.013,0.04,0.023,0.059,0.035
	c0.861-0.806,1.732-1.6,2.579-2.42C27.276,18.298,27.746,17.814,28.21,17.323z"/>
</svg>
